<svg width="162" height="46" viewBox="0 0 162 46" fill="none" xmlns="http://www.w3.org/2000/svg">
<g clip-path="url(#clip0_1_3624)">
<path d="M141.385 41.3198C142.491 40.9419 143.531 40.3974 144.471 39.7052C145.687 38.8733 146.688 37.7672 147.393 36.4773C147.525 36.1725 147.581 35.8404 147.555 35.5095L144.309 17.7554H150.152C150.152 17.7554 151.289 29.5382 151.451 30.9917C153.075 26.3103 156.483 17.7554 156.483 17.7554L162.003 17.9165L155.346 32.2803C153.647 36.2871 151.227 39.9518 148.204 43.0942C146.706 44.5135 144.858 45.5153 142.847 45.9987L141.385 41.3198ZM98.8547 44.8698L102.752 24.8568C103.265 22.4582 103.644 20.0332 103.888 17.593H108.759L108.435 20.4975C109.094 19.55 109.964 18.7661 110.977 18.2065C111.99 17.647 113.119 17.3269 114.277 17.2709C118.336 17.2709 119.958 20.6599 119.958 24.2112C119.958 30.8281 115.739 37.445 109.245 37.445C108.127 37.4925 107.014 37.2734 105.999 36.8058H105.837L104.376 44.8762L98.8547 44.8698ZM107.622 27.4391L106.646 32.6038C107.278 33.1426 108.087 33.4295 108.919 33.4092C112.005 33.4092 114.114 28.4069 114.276 24.8568C114.276 23.4033 113.633 21.7887 112.004 21.7887C110.057 21.7899 108.27 24.0501 107.622 27.4391ZM0 40.0273C0 40.0273 3.24643 14.5275 3.40843 13.7208C3.57043 12.5894 3.57043 12.4284 4.86771 12.1062C6.32957 11.6217 7.62814 11.1385 8.92671 10.8138C9.9 7.10646 12.6553 -0.161144 18.504 0.00121041C18.9862 -0.00442595 19.462 0.11079 19.8876 0.336226C20.3132 0.561662 20.6749 0.890054 20.9391 1.2911H21.1011C23.5363 1.2911 24.9981 3.3902 25.8094 5.6491C26.6207 5.32695 27.108 5.16587 27.108 5.16587C27.341 5.11955 27.5809 5.11955 27.8139 5.16587C27.9219 5.16587 27.9424 5.18761 28.0813 5.32823C28.4066 5.4893 30.8417 7.91056 30.8417 7.91056C30.8417 7.91056 34.2489 8.23271 34.5703 8.23271C34.653 8.23842 34.731 8.27317 34.7904 8.33078C34.8497 8.38838 34.8866 8.46509 34.8943 8.54719C34.8944 8.54975 34.8944 8.55231 34.8943 8.55486C34.8943 8.87062 39.5756 40.5297 39.7594 41.7659V41.803L25.8004 44.8711L0 40.0273ZM10.7126 10.1695L14.283 9.20045C15.2563 4.68137 17.2054 2.58482 19.1533 1.77688C18.8293 1.61453 18.666 1.45345 18.342 1.45345C14.1223 1.45217 11.8504 6.94154 10.7139 10.1695H10.7126ZM16.0689 8.55614L20.7771 7.2637V6.94154C20.7904 5.62213 20.5706 4.31064 20.1279 3.06677C18.6673 3.71363 17.0447 5.16587 16.0714 8.55614H16.0689ZM22.2403 6.13489V6.61811L24.3501 5.97892C24.2047 5.25494 23.8952 4.57345 23.4452 3.98621C22.9952 3.39898 22.4164 2.92146 21.753 2.58993C22.1079 3.73749 22.2734 4.93468 22.2429 6.13489H22.2403ZM46.2626 36.3162L47.5611 32.4414C48.9844 33.1182 50.5301 33.5029 52.1061 33.5728C53.73 33.5728 54.5413 32.6051 54.5413 31.6348C54.5413 30.6645 53.892 30.0214 52.2681 29.0524C50.3203 27.9223 48.6977 26.309 48.6977 24.0501C48.6977 20.1754 51.9441 17.4319 56.8144 17.4319C60.2229 17.4319 61.3594 18.3997 61.3594 18.3997L60.0609 22.2732C58.992 21.7759 57.832 21.5018 56.6524 21.4678C55.0311 21.4678 54.0553 22.107 54.0553 23.2435C54.0553 24.0501 54.7046 24.6944 56.1664 25.5024C58.2763 26.6337 60.0621 28.4081 60.0621 30.8294C60.0621 35.1887 56.4917 37.6048 51.6227 37.6048C49.7508 37.6682 47.897 37.2222 46.2613 36.3149L46.2626 36.3162ZM81.6493 29.8591C81.6493 23.2435 86.0336 17.2709 92.6871 17.2709C97.8814 17.2709 100.155 20.9782 100.155 24.8568C100.155 31.6322 95.7716 37.445 89.2787 37.445C88.2578 37.5165 87.2334 37.3692 86.2746 37.0132C85.3158 36.6571 84.4451 36.1006 83.7213 35.3813C82.9974 34.6619 82.4373 33.7964 82.0787 32.8433C81.7201 31.8902 81.5715 30.8717 81.6429 29.8565L81.6493 29.8591ZM87.3309 29.698C87.3309 31.6348 87.9801 33.2481 89.928 33.2481C92.8491 33.2481 94.473 28.2445 94.473 24.6944C94.473 23.0811 93.8301 21.4678 91.8759 21.4678C88.9534 21.4678 87.3309 26.6325 87.3309 29.698ZM72.3973 37.2839L74.5071 26.309C74.6417 25.5093 74.6959 24.6982 74.6691 23.8878C74.6691 22.5966 74.1831 21.7899 72.8833 21.7899C71.0974 21.7899 69.1547 24.0501 68.5003 27.6002L66.7144 37.1229H61.2L66.5563 9.20045H72.0746L69.9647 20.1754C70.6493 19.2778 71.5324 18.549 72.5457 18.0453C73.5591 17.5416 74.6754 17.2766 75.8083 17.2709C78.7294 17.2709 80.3533 19.2076 80.3533 22.4355C80.3185 23.6244 80.2103 24.81 80.0293 25.9856L77.9181 37.2827L72.3973 37.2839ZM130.347 37.1229L133.268 21.7899H130.671L131.482 17.593H134.079L134.241 16.6253C134.585 14.2708 135.731 12.1048 137.488 10.4891C138.993 9.2632 140.9 8.63114 142.844 8.71338C143.842 8.66783 144.838 8.83251 145.767 9.19661L144.631 13.5546C144.058 13.3471 143.454 13.2382 142.844 13.2325C141.058 13.2325 139.923 14.8471 139.599 16.7825L139.437 17.7503H143.331L142.52 21.7861H138.792L135.869 37.119L130.347 37.1229ZM120.12 37.1229L123.849 17.7541H129.369L125.64 37.1229H120.12ZM124.665 12.7518C124.649 12.3369 124.716 11.9229 124.863 11.5344C125.01 11.1458 125.234 10.7905 125.522 10.4897C125.81 10.1888 126.155 9.94836 126.538 9.78269C126.921 9.61702 127.334 9.52944 127.751 9.52516C128.118 9.50842 128.484 9.56792 128.827 9.69987C129.169 9.83182 129.48 10.0333 129.74 10.2915C129.999 10.5496 130.202 10.8588 130.335 11.1992C130.467 11.5396 130.527 11.9038 130.51 12.2686C130.537 12.6993 130.471 13.1306 130.317 13.5341C130.163 13.9375 129.925 14.3039 129.618 14.6091C129.311 14.9142 128.942 15.151 128.537 15.304C128.131 15.457 127.697 15.5226 127.264 15.4965C126.905 15.5099 126.547 15.4467 126.215 15.3112C125.882 15.1757 125.583 14.971 125.336 14.7108C125.09 14.4507 124.903 14.1412 124.787 13.8031C124.671 13.4649 124.629 13.106 124.664 12.7505L124.665 12.7518Z" fill="#999999"/>
<path d="M21.1009 15.9786L19.3151 21.1433C18.2564 20.6174 17.0901 20.3414 15.9067 20.3366C13.1475 20.3366 12.9842 21.9512 12.9842 22.4344C12.9842 24.6946 19.1557 25.6623 19.1557 31.1504C19.1557 35.5084 16.3965 38.2518 12.6628 38.2518C11.4222 38.28 10.1894 38.0506 9.0431 37.5782C7.89677 37.1059 6.86216 36.4009 6.00537 35.5084L7.14194 31.6349C8.33383 32.6677 9.79803 33.3397 11.3617 33.5717C11.5996 33.5848 11.8377 33.5479 12.0604 33.4633C12.283 33.3787 12.4852 33.2484 12.6538 33.0808C12.8223 32.9132 12.9534 32.7121 13.0385 32.4908C13.1236 32.2694 13.1607 32.0326 13.1475 31.796C13.1475 28.7279 8.11523 28.5681 8.11523 23.5645C8.11523 19.3676 11.2009 15.333 17.2052 15.333C18.5397 15.1377 19.9023 15.3635 21.1009 15.9786Z" fill="#FFFFFE"/>
</g>
<defs>
<clipPath id="clip0_1_3624">
<rect width="162" height="46" fill="white"/>
</clipPath>
</defs>
</svg>

