<svg width="199" height="46" viewBox="0 0 199 46" fill="none" xmlns="http://www.w3.org/2000/svg">
<path d="M26.5329 41.4011V36.8021H31.5089C32.7925 36.7679 34.0375 37.2329 34.9707 38.0952C35.9039 38.9574 36.449 40.1464 36.4864 41.4011C36.449 42.6559 35.9039 43.8449 34.9707 44.7071C34.0375 45.5694 32.7925 46.0344 31.5089 46.0002C30.2255 46.0344 28.9806 45.5693 28.0476 44.7071C27.1147 43.8448 26.5699 42.6558 26.5329 41.4011ZM13.2629 41.4011V29.1325C13.3003 27.8781 13.8452 26.6894 14.7782 25.8274C15.7111 24.9655 16.9558 24.5006 18.239 24.5348C19.5453 24.5293 20.8044 25.0117 21.7591 25.8834C22.2162 26.2988 22.5812 26.8015 22.8316 27.3604C23.082 27.9192 23.2125 28.5223 23.215 29.1325V41.4011C23.1784 42.6559 22.6337 43.8451 21.7006 44.7075C20.7676 45.5698 19.5225 46.0348 18.239 46.0002C16.9558 46.034 15.7113 45.5688 14.7786 44.7066C13.8459 43.8443 13.3013 42.6555 13.2643 41.4011H13.2629ZM137.922 25.8696C138.025 22.1447 139.637 18.6123 142.402 16.0482C145.168 13.484 148.862 12.0979 152.672 12.1942C155.255 12.1691 157.799 12.8011 160.057 14.0281C162.314 15.2551 164.206 17.035 165.547 19.193L158.805 22.6509C158.163 21.6271 157.261 20.7831 156.187 20.2014C155.112 19.6196 153.902 19.3199 152.673 19.3313C150.854 19.2856 149.091 19.9476 147.77 21.1719C146.45 22.3963 145.681 24.0829 145.631 25.8613C145.68 27.6398 146.45 29.3266 147.77 30.551C149.09 31.7754 150.854 32.4373 152.673 32.3912C153.902 32.4025 155.112 32.1027 156.186 31.521C157.261 30.9392 158.163 30.0954 158.805 29.0716L165.547 32.5295C164.207 34.6882 162.315 36.4688 160.057 37.6964C157.8 38.9239 155.255 39.5562 152.672 39.5311C148.864 39.6267 145.172 38.2416 142.407 35.6796C139.642 33.1177 138.03 29.5882 137.923 25.8654L137.922 25.8696ZM103.319 25.8419C103.259 24.0943 103.554 22.3525 104.188 20.7174C104.822 19.0823 105.782 17.5866 107.011 16.317C108.241 15.0474 109.717 14.0292 111.352 13.3215C112.988 12.6137 114.751 12.2306 116.539 12.1942C120.119 12.1942 123.524 13.6922 124.909 15.8333V12.7281H133.339V39.0083H124.909V35.9044C123.526 38.0442 120.12 39.5436 116.539 39.5436C109.151 39.5449 103.322 33.441 103.322 25.8419H103.319ZM111.287 25.8696C111.336 27.6478 112.106 29.3343 113.426 30.5584C114.746 31.7825 116.51 32.4442 118.329 32.3981C119.615 32.4212 120.887 32.1359 122.034 31.567C123.182 30.9982 124.169 30.1633 124.909 29.1352V22.7104C124.184 21.6594 123.203 20.801 122.055 20.2126C120.906 19.6242 119.626 19.3242 118.329 19.3396C116.511 19.2943 114.748 19.9559 113.428 21.1793C112.109 22.4027 111.339 24.088 111.289 25.8654L111.287 25.8696ZM62.2467 36.2253L64.6718 30.9804C67.5061 32.8312 70.8464 33.8013 74.2547 33.7633C76.7943 33.7633 78.4101 32.8546 78.4101 31.4617C78.3521 27.6082 63.1126 30.6055 62.9966 20.9151C62.9386 15.9924 67.6657 12.1928 74.3707 12.1928C78.2028 12.0512 81.9822 13.1005 85.1661 15.1901L82.9023 20.5471C80.2356 18.915 77.1718 18.0078 74.0269 17.9191C71.9484 17.9191 70.5633 18.8279 70.5633 20.0077C70.6213 23.8059 85.9782 21.7187 86.1522 30.979C86.1522 36.0096 81.5327 39.5436 74.9508 39.5436C70.4735 39.6907 66.0523 38.5359 62.2467 36.2253ZM188.226 39.0083L178.237 27.5639V39.0083H169.807V0.807951H178.237V23.2734L187.762 12.7267H198.073L186.296 25.4131L198.997 39.0097L188.226 39.0083ZM90.5227 39.0083V0.807951H98.951V39.0083H90.5227ZM31.516 33.7329C30.21 33.7369 28.9514 33.2547 27.9958 32.3843C27.5388 31.9679 27.1739 31.4645 26.9235 30.905C26.6731 30.3455 26.5426 29.7418 26.5399 29.1311C26.5773 27.8767 27.1223 26.688 28.0552 25.8261C28.9881 24.9641 30.2328 24.4992 31.516 24.5334H44.7874C46.0708 24.4988 47.3158 24.9635 48.2491 25.8256C49.1823 26.6876 49.7275 27.8764 49.7649 29.1311C49.7278 30.3861 49.1829 31.5754 48.2497 32.438C47.3164 33.3005 46.0712 33.7657 44.7874 33.7315L31.516 33.7329ZM1.45589 32.3843C0.998909 31.9679 0.633982 31.4645 0.383594 30.905C0.133205 30.3455 0.00265956 29.7418 0 29.1311C0.0373764 27.8767 0.58234 26.688 1.51527 25.8261C2.4482 24.9641 3.69287 24.4992 4.97606 24.5334H9.95354V29.1311C9.91653 30.3861 9.37158 31.5754 8.43834 32.438C7.5051 33.3005 6.25987 33.7657 4.97606 33.7315C3.66792 33.7383 2.40641 33.2569 1.44882 32.3857L1.45589 32.3843ZM26.5399 16.8651V4.59783C26.5773 3.34332 27.1222 2.15454 28.0551 1.29234C28.988 0.430136 30.2327 -0.0350699 31.516 -0.00120193C32.7994 -0.0347061 34.044 0.43058 34.977 1.29267C35.91 2.15476 36.4554 3.34332 36.4935 4.59783V16.8665C36.4561 18.1215 35.9111 19.3108 34.978 20.1735C34.0448 21.0362 32.7998 21.5018 31.516 21.4683C30.8796 21.486 30.2459 21.381 29.651 21.1592C29.0562 20.9374 28.5118 20.6033 28.0491 20.1758C27.5863 19.7484 27.2143 19.236 26.9541 18.6679C26.694 18.0999 26.5508 17.4873 26.5329 16.8651H26.5399ZM39.8113 21.4669V16.8665C39.848 15.6117 40.3926 14.4223 41.3256 13.5597C42.2586 12.6971 43.5037 12.2319 44.7874 12.2661C46.0712 12.2319 47.3164 12.6971 48.2497 13.5596C49.1829 14.4222 49.7278 15.6115 49.7649 16.8665C49.7275 18.1214 49.1824 19.3105 48.2493 20.173C47.3161 21.0355 46.0711 21.5008 44.7874 21.4669H39.8113ZM4.97606 21.4669C3.69249 21.5008 2.44762 21.0354 1.5147 20.1729C0.581768 19.3104 0.0370118 18.1213 0 16.8665C0.0366409 15.6117 0.581283 14.4223 1.51429 13.5597C2.44731 12.6971 3.69239 12.2319 4.97606 12.2661H18.2474C19.5311 12.2319 20.7762 12.6971 21.7092 13.5597C22.6422 14.4223 23.1869 15.6117 23.2235 16.8665C23.1865 18.1213 22.6417 19.3104 21.7088 20.1729C20.7759 21.0354 19.531 21.5008 18.2474 21.4669H4.97606ZM18.2474 9.19963C16.941 9.20383 15.6818 8.72165 14.7259 7.85104C14.269 7.43464 13.9042 6.93116 13.6541 6.37165C13.4039 5.81213 13.2737 5.20845 13.2714 4.59783C13.3091 3.34406 13.8538 2.15606 14.7861 1.29423C15.7183 0.432404 16.962 -0.0329462 18.2446 0.000181237C19.5279 -0.0336867 20.7726 0.431519 21.7055 1.29372C22.6384 2.15593 23.1833 3.34471 23.2207 4.59921V9.20101L18.2474 9.19963Z" fill="#999999"/>
</svg>
