<svg width="228" height="45" viewBox="0 0 228 45" fill="none" xmlns="http://www.w3.org/2000/svg">
<path d="M13.158 36.5337L26.3876 28.0687L39.6172 36.5337L26.3876 44.9959L13.158 36.5337ZM131.167 44.4331L131.239 13.8205H136.165L136.728 18.1234C137.309 16.6326 138.34 15.3614 139.678 14.4878C141.016 13.6143 142.593 13.1822 144.188 13.2522C149.957 13.2522 153.759 17.4144 153.759 25.1V25.7346C153.759 33.2118 149.536 37.1628 144.188 37.1628C142.694 37.2738 141.203 36.9288 139.909 36.1733C138.615 35.4178 137.58 34.2872 136.94 32.9304V44.4317L131.167 44.4331ZM136.868 25.1054V25.5289C136.868 29.549 138.978 32.0887 142.287 32.0887C145.662 32.017 147.776 29.8318 147.776 25.6006V25.1054C147.776 20.5915 145.454 18.3399 142.357 18.3399C139.044 18.3385 136.868 20.8783 136.868 25.1094V25.1054ZM182.046 25.6696V25.035C182.046 17.4184 186.906 13.2631 193.521 13.2631C200.27 13.2631 204.995 17.4252 204.995 25.035V25.6696C204.995 33.1469 200.351 37.171 193.521 37.171C186.197 37.1006 182.046 33.1509 182.046 25.675V25.6696ZM188.028 25.035V25.6006C188.028 29.691 190.138 32.017 193.518 32.017C196.893 31.948 199.007 29.691 199.007 25.6006V25.035C199.007 20.8039 196.897 18.2695 193.518 18.2695C190.208 18.2668 188.026 20.5955 188.026 25.0391L188.028 25.035ZM162.484 32.3715L161.994 36.5337H156.927V6.20396H162.697V17.8406C163.293 16.3962 164.327 15.1763 165.653 14.3536C166.979 13.5309 168.53 13.147 170.085 13.2563C175.504 13.3267 179.515 17.0639 179.515 24.6115V25.3178C179.515 32.8654 175.715 37.1683 169.944 37.1683C168.354 37.2622 166.776 36.8489 165.436 35.9879C164.096 35.1268 163.062 33.8622 162.484 32.3756V32.3715ZM162.554 24.8239V25.3178C162.554 29.549 164.735 32.017 167.973 32.017C171.422 32.017 173.462 29.8318 173.462 25.3178V24.7536C173.462 20.5915 171.21 18.2587 168.044 18.2587C164.804 18.2668 162.553 20.8783 162.553 24.8294L162.554 24.8239ZM105.204 25.6696V25.035C105.204 17.4184 110.063 13.2631 116.678 13.2631C123.428 13.2631 128.153 17.4252 128.153 25.035V25.6696C128.153 33.1469 123.578 37.171 116.678 37.171C109.353 37.1006 105.202 33.1509 105.202 25.675L105.204 25.6696ZM111.114 25.035V25.6006C111.114 29.691 113.225 32.017 116.604 32.017C119.979 31.948 122.093 29.691 122.093 25.6006V25.035C122.093 20.8039 119.982 18.2695 116.604 18.2695C113.294 18.2668 111.112 20.5955 111.112 25.0391L111.114 25.035ZM89.5806 36.6027V13.8205H94.2946L95.0682 19.1112C95.9834 15.5146 98.3081 13.6095 102.528 13.6095H104.005V19.6754H101.543C96.6827 19.6754 95.4907 21.3668 95.4907 26.1703V36.6094L89.5806 36.6027ZM221.314 36.5323L216.105 28.9847L211.04 36.5323H204.073L212.729 24.7522L204.778 13.8192H211.603L216.178 20.6618L220.822 13.8192H227.572L219.48 24.6819L227.995 36.5323H221.314ZM63.1916 36.5323V8.45957H73.8886C80.7154 8.45957 86.3447 12.4079 86.3447 21.4385V23.341C86.3447 32.4405 81.0664 36.5323 74.0992 36.5323H63.1916ZM69.1746 31.3838H73.7483C77.6186 31.3838 80.2281 28.844 80.2281 23.2016V21.7132C80.2281 16.0708 77.4836 13.531 73.5431 13.531H69.18L69.1746 31.3838ZM26.4592 25.3178L39.6888 16.8542L26.4592 8.46498L39.6186 0L52.8482 8.46498L39.6186 16.93L52.8482 25.3936L39.6186 33.8559L26.4592 25.3178ZM0 25.3178L13.2296 16.8542L0 8.46498L13.2296 0L26.4592 8.46498L13.2296 16.93L26.4592 25.3936L13.2296 33.8559L0 25.3178ZM89.5117 13.8165H89.5819H89.5117Z" fill="#999999"/>
</svg>
