<svg width="142" height="46" viewBox="0 0 142 46" fill="none" xmlns="http://www.w3.org/2000/svg">
<path d="M96.4698 45.8481C94.6331 45.5332 92.9061 44.7635 91.4486 43.6103C89.9912 42.4571 88.8505 40.9577 88.1321 39.2507C89.5612 38.5661 91.0627 38.0219 92.5389 37.3829C92.9282 38.3706 93.5549 39.2489 94.3645 39.9412C95.1741 40.6335 96.142 41.1188 97.1838 41.3548C98.2567 41.5945 99.3746 41.5455 100.422 41.2129C101.469 40.8804 102.408 40.2762 103.142 39.463C104.619 37.667 104.619 35.207 104.547 33.0094C103.495 34.1357 102.151 34.9535 100.663 35.3736C98.9984 35.7698 97.2614 35.755 95.604 35.3305C93.9466 34.906 92.4193 34.0847 91.1558 32.9387C89.8653 31.8113 88.8418 30.415 88.1582 28.8494C87.4747 27.2839 87.1482 25.5878 87.2019 23.8824C87.2629 21.9536 87.8038 20.0697 88.7766 18.3987C89.7493 16.7278 91.1236 15.3217 92.7769 14.3059C94.1479 13.4178 95.7225 12.8872 97.3549 12.7632C98.9873 12.6391 100.625 12.9256 102.116 13.5962C103.022 14.0453 103.844 14.645 104.547 15.3693C104.571 14.7315 104.547 14.0674 104.571 13.4068C106.168 13.4307 107.764 13.4068 109.385 13.4307V34.285C109.524 37.4993 108.405 40.6424 106.263 43.0572C105.231 44.0324 104.013 44.7947 102.682 45.2998C101.35 45.8049 99.9308 46.0428 98.506 45.9998C97.8244 46.0001 97.1438 45.9494 96.4698 45.8481ZM97.7093 17.3307C96.2444 17.5856 94.9185 18.3487 93.9681 19.4838C92.8785 20.8286 92.2866 22.5034 92.291 24.229C92.2954 25.9545 92.8958 27.6264 93.9922 28.9656C94.6416 29.7315 95.4687 30.3295 96.4023 30.7083C97.3359 31.0871 98.3481 31.2354 99.3522 31.1404C100.295 31.0289 101.198 30.699 101.988 30.1774C102.779 29.6557 103.435 28.9568 103.903 28.1373C104.686 26.7386 105.028 25.1385 104.883 23.5447C104.739 21.9509 104.115 20.4371 103.092 19.1997C102.542 18.5846 101.866 18.0922 101.11 17.755C100.354 17.4177 99.534 17.2431 98.7049 17.2429C98.371 17.2431 98.0378 17.2729 97.7093 17.3319V17.3307ZM47.6515 35.6805C45.9537 35.5897 44.2969 35.1297 42.7982 34.3329C41.2996 33.5361 39.9958 32.4221 38.9791 31.0697C37.8724 29.535 37.1521 27.7596 36.8784 25.892C36.6048 24.0244 36.7858 22.1189 37.4063 20.335C38.0602 18.4447 39.211 16.762 40.7397 15.461C42.2684 14.1599 44.1195 13.2876 46.1016 12.9344C47.6798 12.6316 49.3033 12.6473 50.8752 12.9805C52.4472 13.3138 53.9354 13.9578 55.2511 14.8741C57.6287 16.5637 59.2453 19.11 59.7546 21.9678C60.0817 23.6201 60.0446 25.3232 59.6456 26.9599C59.2467 28.5967 58.4955 30.1283 57.4437 31.4496C56.3491 32.7846 54.9675 33.8596 53.4001 34.596C51.8327 35.3324 50.1192 35.7115 48.385 35.7056C48.1397 35.7033 47.896 35.695 47.6538 35.6805H47.6515ZM46.8179 17.4243C45.5108 17.7599 44.3439 18.4967 43.4837 19.5294C42.361 20.934 41.7823 22.6911 41.8523 24.4826C41.9224 26.274 42.6365 27.9814 43.8654 29.2954C44.5955 30.0237 45.4939 30.5639 46.4824 30.8687C47.4709 31.1736 48.5196 31.234 49.537 31.0446C50.4714 30.8644 51.3537 30.4802 52.12 29.92C52.8864 29.3597 53.5176 28.6374 53.968 27.8052C54.7526 26.3849 55.0513 24.7501 54.8193 23.1468C54.5873 21.5435 53.8371 20.0583 52.6815 18.9144C51.492 17.838 49.9408 17.2404 48.3309 17.2383C47.8206 17.2378 47.3123 17.3011 46.8179 17.4266V17.4243ZM9.60252 33.5263C5.68541 31.4474 2.6621 28.0277 1.09457 23.903C-0.324925 20.1024 -0.36558 15.9297 0.979602 12.1026C2.22215 8.62797 4.5097 5.61575 7.53302 3.47309C10.4477 1.38988 13.9049 0.183332 17.4919 -0.00244141H18.7566C23.1818 0.0807295 27.4051 1.85018 30.5516 4.93929C29.4077 6.09856 28.2407 7.20991 27.1197 8.36804C25.4121 6.7663 23.2939 5.66111 20.9963 5.1732C19.3113 4.81288 17.5708 4.79039 15.877 5.10703C14.1832 5.42368 12.5702 6.07308 11.1328 7.01708C9.59238 8.03627 8.29089 9.3724 7.31666 10.9348C6.34244 12.4972 5.71827 14.2493 5.48652 16.0722C5.23337 17.8729 5.3589 19.7061 5.85519 21.4562C6.35147 23.2064 7.20774 24.8355 8.37002 26.2409C9.51238 27.6007 10.9296 28.7074 12.53 29.4894C14.1304 30.2715 15.8784 30.7115 17.6609 30.781C19.3362 30.9074 21.0199 30.6939 22.6094 30.1534C24.1988 29.613 25.6607 28.7569 26.9059 27.6375C28.7106 25.9156 29.8059 23.5894 29.9791 21.1109C26.0252 21.1109 22.069 21.1349 18.1151 21.1109V16.2388H34.7688C35.6265 21.4657 34.3871 27.3511 30.3849 31.0879C27.6467 33.7235 24.0632 35.3218 20.2593 35.6041C19.6385 35.6645 19.0142 35.6953 18.3899 35.6953C15.3231 35.7111 12.301 34.9663 9.59793 33.5286L9.60252 33.5263ZM73.1454 35.6771C71.4057 35.6274 69.6999 35.1867 68.1565 34.3883C66.6132 33.5898 65.2724 32.4544 64.2351 31.0674C63.1104 29.4949 62.3864 27.6754 62.1249 25.7646C61.8634 23.8538 62.0722 21.9086 62.7335 20.0954C63.417 18.2589 64.5722 16.6317 66.0848 15.3749C67.5973 14.1182 69.4146 13.2757 71.3564 12.931C73.1633 12.5796 75.0277 12.651 76.8019 13.1394C78.5761 13.6278 80.2112 14.5198 81.5775 15.7447C83.6921 17.7583 84.9775 20.4798 85.1842 23.381C85.391 26.2822 84.5042 29.1561 82.6962 31.4451C81.6043 32.7746 80.2271 33.8455 78.6651 34.5796C77.1031 35.3137 75.3957 35.6926 73.6674 35.6885C73.4938 35.6919 73.319 35.6874 73.1443 35.6794L73.1454 35.6771ZM72.0727 17.4209C70.7717 17.7569 69.6072 18.4838 68.7385 19.5021C67.6268 20.8863 67.0434 22.6157 67.0914 24.3852C67.1393 26.1546 67.8155 27.8504 69.0007 29.1733C69.7345 29.9429 70.6512 30.5173 71.6669 30.8438C72.6825 31.1704 73.7645 31.2386 74.8137 31.0423C75.7453 30.8546 76.6245 30.4675 77.39 29.908C78.1554 29.3486 78.7888 28.6302 79.2458 27.8029C80.0235 26.3733 80.3137 24.7322 80.0731 23.1251C79.8325 21.5181 79.0739 20.0317 77.911 18.8882C76.7299 17.8227 75.1911 17.2324 73.595 17.2326C73.081 17.2327 72.5691 17.2975 72.0716 17.4254L72.0727 17.4209ZM123.37 31.7509C121.461 29.4169 120.494 26.4622 120.657 23.4605C120.82 20.4588 122.101 17.6242 124.252 15.5074C125.702 14.1913 127.489 13.2949 129.416 12.9157C131.344 12.5365 133.34 12.689 135.187 13.3566C138.666 14.6562 140.881 17.9434 142.001 21.3243C136.827 23.4523 131.685 25.5563 126.516 27.6854C127.178 29.0877 128.354 30.1868 129.804 30.7593C130.845 31.1407 131.965 31.2582 133.064 31.1012C134.162 30.9442 135.204 30.5176 136.094 29.8602C136.759 29.3145 137.351 28.6868 137.856 27.9924C139.166 28.8675 140.478 29.7187 141.787 30.5939C140.853 31.9856 139.622 33.1563 138.181 34.0226C136.74 34.8889 135.124 35.4296 133.448 35.6063C132.995 35.6613 132.538 35.6887 132.081 35.6885C130.428 35.7001 128.793 35.3542 127.288 34.675C125.784 33.9958 124.446 32.9995 123.369 31.7554L123.37 31.7509ZM126.801 19.8843C126.019 21.06 125.627 22.4486 125.68 23.8562C129.135 22.4383 132.59 21.012 136.044 19.5774C135.727 18.9394 135.252 18.3908 134.666 17.982C134.079 17.5731 133.398 17.317 132.685 17.2371C132.393 17.1853 132.097 17.1594 131.8 17.1596C130.808 17.187 129.837 17.4486 128.968 17.9227C128.098 18.3967 127.355 19.0695 126.8 19.8854L126.801 19.8843ZM113.028 34.9697C113.052 23.7386 113.028 12.4825 113.028 1.22871H118.128V34.9925C117.272 34.9925 116.404 34.9993 115.546 34.9993C114.704 35.0005 113.864 34.9948 113.028 34.9708V34.9697Z" fill="#999999"/>
</svg>
