<svg width="15" height="15" viewBox="0 0 15 15" fill="none" xmlns="http://www.w3.org/2000/svg">
<path d="M1.73217 3.46433C2.68882 3.46433 3.46433 2.68882 3.46433 1.73217C3.46433 0.775517 2.68882 0 1.73217 0C0.775517 0 0 0.775517 0 1.73217C0 2.68882 0.775517 3.46433 1.73217 3.46433Z" fill="#404040"/>
<path d="M5.09972 4.77681V14.3868H8.08351V9.63447C8.08351 8.38047 8.31943 7.16606 9.87426 7.16606C11.4077 7.16606 11.4267 8.59976 11.4267 9.71364V14.3876H14.4121V9.11751C14.4121 6.52876 13.8548 4.53931 10.829 4.53931C9.3763 4.53931 8.40255 5.33651 8.00435 6.09097H7.96397V4.77681H5.09972ZM0.237305 4.77681H3.22585V14.3868H0.237305V4.77681Z" fill="#404040"/>
</svg>
