<svg width="98" height="96" viewBox="0 0 98 96" fill="none" xmlns="http://www.w3.org/2000/svg">
<g filter="url(#filter0_dd_1_3347)">
<circle cx="53" cy="47" r="40" fill="#FACC15"/>
<path d="M15 11V9.5H13.5V11H15ZM55 11H56.5V9.5H55V11ZM21.4393 29.9393C20.8536 30.5251 20.8536 31.4749 21.4393 32.0607C22.0251 32.6464 22.9749 32.6464 23.5607 32.0607L22.5 31L21.4393 29.9393ZM30 23.5L31.0607 22.4393C30.7794 22.158 30.3978 22 30 22C29.6022 22 29.2206 22.158 28.9393 22.4393L30 23.5ZM37.5 31L36.4393 32.0607C36.7206 32.342 37.1022 32.5 37.5 32.5C37.8978 32.5 38.2794 32.342 38.5607 32.0607L37.5 31ZM48.5607 22.0607C49.1464 21.4749 49.1464 20.5251 48.5607 19.9393C47.9749 19.3536 47.0251 19.3536 46.4393 19.9393L47.5 21L48.5607 22.0607ZM23.9393 52.4393C23.3536 53.0251 23.3536 53.9749 23.9393 54.5607C24.5251 55.1464 25.4749 55.1464 26.0607 54.5607L25 53.5L23.9393 52.4393ZM35 43.5L36.0607 42.4393C35.7794 42.158 35.3978 42 35 42C34.6022 42 34.2206 42.158 33.9393 42.4393L35 43.5ZM43.9393 54.5607C44.5251 55.1464 45.4749 55.1464 46.0607 54.5607C46.6464 53.9749 46.6464 53.0251 46.0607 52.4393L45 53.5L43.9393 54.5607ZM12.5 9.5C11.6716 9.5 11 10.1716 11 11C11 11.8284 11.6716 12.5 12.5 12.5V11V9.5ZM57.5 12.5C58.3284 12.5 59 11.8284 59 11C59 10.1716 58.3284 9.5 57.5 9.5V11V12.5ZM15 11V12.5H55V11V9.5H15V11ZM55 11H53.5V41H55H56.5V11H55ZM52.5 43.5V42H17.5V43.5V45H52.5V43.5ZM15 41H16.5V11H15H13.5V41H15ZM17.5 43.5V42C16.9477 42 16.5 41.5523 16.5 41H15H13.5C13.5 43.2091 15.2909 45 17.5 45V43.5ZM55 41H53.5C53.5 41.5523 53.0523 42 52.5 42V43.5V45C54.7091 45 56.5 43.2091 56.5 41H55ZM22.5 31L23.5607 32.0607L31.0607 24.5607L30 23.5L28.9393 22.4393L21.4393 29.9393L22.5 31ZM30 23.5L28.9393 24.5607L36.4393 32.0607L37.5 31L38.5607 29.9393L31.0607 22.4393L30 23.5ZM37.5 31L38.5607 32.0607L48.5607 22.0607L47.5 21L46.4393 19.9393L36.4393 29.9393L37.5 31ZM25 53.5L26.0607 54.5607L36.0607 44.5607L35 43.5L33.9393 42.4393L23.9393 52.4393L25 53.5ZM35 43.5L33.9393 44.5607L43.9393 54.5607L45 53.5L46.0607 52.4393L36.0607 42.4393L35 43.5ZM12.5 11V12.5H57.5V11V9.5H12.5V11Z" fill="#111827"/>
</g>
<defs>
<filter id="filter0_dd_1_3347" x="0" y="0" width="98" height="96" filterUnits="userSpaceOnUse" color-interpolation-filters="sRGB">
<feFlood flood-opacity="0" result="BackgroundImageFix"/>
<feColorMatrix in="SourceAlpha" type="matrix" values="0 0 0 0 0 0 0 0 0 0 0 0 0 0 0 0 0 0 127 0" result="hardAlpha"/>
<feMorphology radius="1" operator="erode" in="SourceAlpha" result="effect1_dropShadow_1_3347"/>
<feOffset dy="2"/>
<feGaussianBlur stdDeviation="2"/>
<feColorMatrix type="matrix" values="0 0 0 0 0 0 0 0 0 0 0 0 0 0 0 0 0 0 0.06 0"/>
<feBlend mode="normal" in2="BackgroundImageFix" result="effect1_dropShadow_1_3347"/>
<feColorMatrix in="SourceAlpha" type="matrix" values="0 0 0 0 0 0 0 0 0 0 0 0 0 0 0 0 0 0 127 0" result="hardAlpha"/>
<feMorphology radius="1" operator="erode" in="SourceAlpha" result="effect2_dropShadow_1_3347"/>
<feOffset dy="4"/>
<feGaussianBlur stdDeviation="3"/>
<feColorMatrix type="matrix" values="0 0 0 0 0 0 0 0 0 0 0 0 0 0 0 0 0 0 0.1 0"/>
<feBlend mode="normal" in2="effect1_dropShadow_1_3347" result="effect2_dropShadow_1_3347"/>
<feBlend mode="normal" in="SourceGraphic" in2="effect2_dropShadow_1_3347" result="shape"/>
</filter>
</defs>
</svg>
